<svg xmlns="http://www.w3.org/2000/svg" viewBox="0 0 620 640" width="620" height="640"><defs>
<linearGradient id="carro" x1="0" y1="0" x2="0" y2="1"><stop offset="0" stop-color="#FFD84D"/><stop offset=".6" stop-color="#FFC107"/><stop offset="1" stop-color="#F0A500"/></linearGradient>
<linearGradient id="vidrio" x1="0" y1="0" x2="1" y2="1"><stop offset="0" stop-color="#22304F"/><stop offset=".6" stop-color="#2E3F66"/><stop offset="1" stop-color="#5B7BB8"/></linearGradient>
<radialGradient id="faro" cx=".5" cy=".5" r=".5"><stop offset="0" stop-color="#FFF6CF" stop-opacity=".95"/><stop offset=".4" stop-color="#FFE38A" stop-opacity=".4"/><stop offset="1" stop-color="#FFE38A" stop-opacity="0"/></radialGradient>
<pattern id="cuadrosc" width="8" height="8" patternUnits="userSpaceOnUse"><rect width="8" height="8" fill="#121212"/><rect width="4" height="4" fill="#fff"/><rect x="4" y="4" width="4" height="4" fill="#fff"/></pattern><radialGradient id="halo" cx=".5" cy=".5" r=".5"><stop offset="0" stop-color="#FFC21A" stop-opacity=".28"/><stop offset=".6" stop-color="#FFC21A" stop-opacity=".08"/><stop offset="1" stop-color="#FFC21A" stop-opacity="0"/></radialGradient></defs><circle cx="360" cy="300" r="270" fill="url(#halo)"/><rect x="226" y="32" width="300" height="604" rx="45" fill="#000" opacity=".28"/><rect x="220" y="16" width="300" height="604" rx="45" fill="#0B0F17"/><rect x="221.5" y="17.5" width="297" height="601" rx="44" fill="none" stroke="#fff" stroke-opacity=".1" stroke-width="2"/><clipPath id="pantalla-portada"><rect x="230" y="26" width="280" height="584" rx="37"/></clipPath><g clip-path="url(#pantalla-portada)"><rect x="230" y="26" width="280" height="584" fill="#FFFFFF"/><g transform="translate(370 318) rotate(-14)"><rect x="-488.5" y="-488.5" width="49" height="49" rx="5" fill="#F8F6EF"/><rect x="-488.5" y="-430.5" width="49" height="49" rx="5" fill="#F8F6EF"/><rect x="-488.5" y="-372.5" width="49" height="49" rx="5" fill="#F8F6EF"/><rect x="-488.5" y="-314.5" width="49" height="49" rx="5" fill="#F8F6EF"/><rect x="-488.5" y="-256.5" width="49" height="49" rx="5" fill="#F8F6EF"/><rect x="-488.5" y="-198.5" width="49" height="49" rx="5" fill="#F8F6EF"/><rect x="-488.5" y="-140.5" width="49" height="49" rx="5" fill="#F8F6EF"/><rect x="-488.5" y="-82.5" width="49" height="49" rx="5" fill="#F8F6EF"/><rect x="-488.5" y="-24.5" width="49" height="49" rx="5" fill="#F8F6EF"/><rect x="-488.5" y="33.5" width="49" height="49" rx="5" fill="#F8F6EF"/><rect x="-488.5" y="91.5" width="49" height="49" rx="5" fill="#F8F6EF"/><rect x="-488.5" y="149.5" width="49" height="49" rx="5" fill="#F8F6EF"/><rect x="-488.5" y="207.5" width="49" height="49" rx="5" fill="#F2EFE4"/><rect x="-488.5" y="265.5" width="49" height="49" rx="5" fill="#F8F6EF"/><rect x="-488.5" y="323.5" width="49" height="49" rx="5" fill="#F8F6EF"/><rect x="-488.5" y="381.5" width="49" height="49" rx="5" fill="#F8F6EF"/><rect x="-488.5" y="439.5" width="49" height="49" rx="5" fill="#F8F6EF"/><rect x="-430.5" y="-488.5" width="49" height="49" rx="5" fill="#F8F6EF"/><rect x="-430.5" y="-430.5" width="49" height="49" rx="5" fill="#F2EFE4"/><rect x="-430.5" y="-372.5" width="49" height="49" rx="5" fill="#F8F6EF"/><rect x="-430.5" y="-314.5" width="49" height="49" rx="5" fill="#F8F6EF"/><rect x="-430.5" y="-256.5" width="49" height="49" rx="5" fill="#F8F6EF"/><rect x="-430.5" y="-198.5" width="49" height="49" rx="5" fill="#F8F6EF"/><rect x="-430.5" y="-140.5" width="49" height="49" rx="5" fill="#F8F6EF"/><rect x="-430.5" y="-82.5" width="49" height="49" rx="5" fill="#F8F6EF"/><rect x="-430.5" y="-24.5" width="49" height="49" rx="5" fill="#F2EFE4"/><rect x="-430.5" y="33.5" width="49" height="49" rx="5" fill="#F2EFE4"/><rect x="-430.5" y="91.5" width="49" height="49" rx="5" fill="#F2EFE4"/><rect x="-430.5" y="149.5" width="49" height="49" rx="5" fill="#F8F6EF"/><rect x="-430.5" y="207.5" width="49" height="49" rx="5" fill="#F8F6EF"/><rect x="-430.5" y="265.5" width="49" height="49" rx="5" fill="#F8F6EF"/><rect x="-430.5" y="323.5" width="49" height="49" rx="5" fill="#F8F6EF"/><rect x="-430.5" y="381.5" width="49" height="49" rx="5" fill="#F8F6EF"/><rect x="-430.5" y="439.5" width="49" height="49" rx="5" fill="#F8F6EF"/><rect x="-372.5" y="-488.5" width="49" height="49" rx="5" fill="#F8F6EF"/><rect x="-372.5" y="-430.5" width="49" height="49" rx="5" fill="#F8F6EF"/><rect x="-372.5" y="-372.5" width="49" height="49" rx="5" fill="#F8F6EF"/><rect x="-372.5" y="-314.5" width="49" height="49" rx="5" fill="#F8F6EF"/><rect x="-372.5" y="-256.5" width="49" height="49" rx="5" fill="#F8F6EF"/><rect x="-372.5" y="-198.5" width="49" height="49" rx="5" fill="#F8F6EF"/><rect x="-372.5" y="-140.5" width="49" height="49" rx="5" fill="#F8F6EF"/><rect x="-372.5" y="-82.5" width="49" height="49" rx="5" fill="#F8F6EF"/><rect x="-372.5" y="-24.5" width="49" height="49" rx="5" fill="#F8F6EF"/><rect x="-372.5" y="33.5" width="49" height="49" rx="5" fill="#F8F6EF"/><rect x="-372.5" y="91.5" width="49" height="49" rx="5" fill="#F8F6EF"/><rect x="-372.5" y="149.5" width="49" height="49" rx="5" fill="#F8F6EF"/><rect x="-372.5" y="207.5" width="49" height="49" rx="5" fill="#F2EFE4"/><rect x="-372.5" y="265.5" width="49" height="49" rx="5" fill="#F8F6EF"/><rect x="-372.5" y="323.5" width="49" height="49" rx="5" fill="#F8F6EF"/><rect x="-372.5" y="381.5" width="49" height="49" rx="5" fill="#F8F6EF"/><rect x="-372.5" y="439.5" width="49" height="49" rx="5" fill="#F8F6EF"/><rect x="-314.5" y="-488.5" width="49" height="49" rx="5" fill="#F8F6EF"/><rect x="-314.5" y="-430.5" width="49" height="49" rx="5" fill="#F8F6EF"/><rect x="-314.5" y="-372.5" width="49" height="49" rx="5" fill="#F8F6EF"/><rect x="-314.5" y="-314.5" width="49" height="49" rx="5" fill="#F8F6EF"/><rect x="-314.5" y="-256.5" width="49" height="49" rx="5" fill="#F8F6EF"/><rect x="-314.5" y="-198.5" width="49" height="49" rx="5" fill="#F8F6EF"/><rect x="-314.5" y="-140.5" width="49" height="49" rx="5" fill="#F8F6EF"/><rect x="-314.5" y="-82.5" width="49" height="49" rx="5" fill="#F8F6EF"/><rect x="-314.5" y="-24.5" width="49" height="49" rx="5" fill="#F8F6EF"/><rect x="-314.5" y="33.5" width="49" height="49" rx="5" fill="#F2EFE4"/><rect x="-314.5" y="91.5" width="49" height="49" rx="5" fill="#F2EFE4"/><rect x="-314.5" y="149.5" width="49" height="49" rx="5" fill="#F8F6EF"/><rect x="-314.5" y="207.5" width="49" height="49" rx="5" fill="#F8F6EF"/><rect x="-314.5" y="265.5" width="49" height="49" rx="5" fill="#F8F6EF"/><rect x="-314.5" y="323.5" width="49" height="49" rx="5" fill="#F8F6EF"/><rect x="-314.5" y="381.5" width="49" height="49" rx="5" fill="#F8F6EF"/><rect x="-314.5" y="439.5" width="49" height="49" rx="5" fill="#F8F6EF"/><rect x="-256.5" y="-488.5" width="49" height="49" rx="5" fill="#F8F6EF"/><rect x="-256.5" y="-430.5" width="49" height="49" rx="5" fill="#F8F6EF"/><rect x="-256.5" y="-372.5" width="49" height="49" rx="5" fill="#F8F6EF"/><rect x="-256.5" y="-314.5" width="49" height="49" rx="5" fill="#F8F6EF"/><rect x="-256.5" y="-256.5" width="49" height="49" rx="5" fill="#F8F6EF"/><rect x="-256.5" y="-198.5" width="49" height="49" rx="5" fill="#F8F6EF"/><rect x="-256.5" y="-140.5" width="49" height="49" rx="5" fill="#F8F6EF"/><rect x="-256.5" y="-82.5" width="49" height="49" rx="5" fill="#F8F6EF"/><rect x="-256.5" y="-24.5" width="49" height="49" rx="5" fill="#F8F6EF"/><rect x="-256.5" y="33.5" width="49" height="49" rx="5" fill="#F8F6EF"/><rect x="-256.5" y="91.5" width="49" height="49" rx="5" fill="#F8F6EF"/><rect x="-256.5" y="149.5" width="49" height="49" rx="5" fill="#F8F6EF"/><rect x="-256.5" y="207.5" width="49" height="49" rx="5" fill="#F8F6EF"/><rect x="-256.5" y="265.5" width="49" height="49" rx="5" fill="#F2EFE4"/><rect x="-256.5" y="323.5" width="49" height="49" rx="5" fill="#F8F6EF"/><rect x="-256.5" y="381.5" width="49" height="49" rx="5" fill="#F8F6EF"/><rect x="-256.5" y="439.5" width="49" height="49" rx="5" fill="#F8F6EF"/><rect x="-198.5" y="-488.5" width="49" height="49" rx="5" fill="#F8F6EF"/><rect x="-198.5" y="-430.5" width="49" height="49" rx="5" fill="#F8F6EF"/><rect x="-198.5" y="-372.5" width="49" height="49" rx="5" fill="#F8F6EF"/><rect x="-198.5" y="-314.5" width="49" height="49" rx="5" fill="#F8F6EF"/><rect x="-198.5" y="-256.5" width="49" height="49" rx="5" fill="#F8F6EF"/><rect x="-198.5" y="-198.5" width="49" height="49" rx="5" fill="#F8F6EF"/><rect x="-198.5" y="-140.5" width="49" height="49" rx="5" fill="#F2EFE4"/><rect x="-198.5" y="-82.5" width="49" height="49" rx="5" fill="#F8F6EF"/><rect x="-198.5" y="-24.5" width="49" height="49" rx="5" fill="#F8F6EF"/><rect x="-198.5" y="33.5" width="49" height="49" rx="5" fill="#F8F6EF"/><rect x="-198.5" y="91.5" width="49" height="49" rx="5" fill="#F8F6EF"/><rect x="-198.5" y="149.5" width="49" height="49" rx="5" fill="#F8F6EF"/><rect x="-198.5" y="207.5" width="49" height="49" rx="5" fill="#F8F6EF"/><rect x="-198.5" y="265.5" width="49" height="49" rx="5" fill="#F8F6EF"/><rect x="-198.5" y="323.5" width="49" height="49" rx="5" fill="#F8F6EF"/><rect x="-198.5" y="381.5" width="49" height="49" rx="5" fill="#F8F6EF"/><rect x="-198.5" y="439.5" width="49" height="49" rx="5" fill="#F8F6EF"/><rect x="-140.5" y="-488.5" width="49" height="49" rx="5" fill="#F8F6EF"/><rect x="-140.5" y="-430.5" width="49" height="49" rx="5" fill="#F8F6EF"/><rect x="-140.5" y="-372.5" width="49" height="49" rx="5" fill="#F8F6EF"/><rect x="-140.5" y="-314.5" width="49" height="49" rx="5" fill="#F8F6EF"/><rect x="-140.5" y="-256.5" width="49" height="49" rx="5" fill="#F8F6EF"/><rect x="-140.5" y="-198.5" width="49" height="49" rx="5" fill="#F8F6EF"/><rect x="-140.5" y="-140.5" width="49" height="49" rx="5" fill="#F8F6EF"/><rect x="-140.5" y="-82.5" width="49" height="49" rx="5" fill="#F8F6EF"/><rect x="-140.5" y="-24.5" width="49" height="49" rx="5" fill="#F8F6EF"/><rect x="-140.5" y="33.5" width="49" height="49" rx="5" fill="#F8F6EF"/><rect x="-140.5" y="91.5" width="49" height="49" rx="5" fill="#F8F6EF"/><rect x="-140.5" y="149.5" width="49" height="49" rx="5" fill="#F8F6EF"/><rect x="-140.5" y="207.5" width="49" height="49" rx="5" fill="#F8F6EF"/><rect x="-140.5" y="265.5" width="49" height="49" rx="5" fill="#F2EFE4"/><rect x="-140.5" y="323.5" width="49" height="49" rx="5" fill="#F8F6EF"/><rect x="-140.5" y="381.5" width="49" height="49" rx="5" fill="#F2EFE4"/><rect x="-140.5" y="439.5" width="49" height="49" rx="5" fill="#F8F6EF"/><rect x="-82.5" y="-488.5" width="49" height="49" rx="5" fill="#F8F6EF"/><rect x="-82.5" y="-430.5" width="49" height="49" rx="5" fill="#F8F6EF"/><rect x="-82.5" y="-372.5" width="49" height="49" rx="5" fill="#F8F6EF"/><rect x="-82.5" y="-314.5" width="49" height="49" rx="5" fill="#F8F6EF"/><rect x="-82.5" y="-256.5" width="49" height="49" rx="5" fill="#F8F6EF"/><rect x="-82.5" y="-198.5" width="49" height="49" rx="5" fill="#F8F6EF"/><rect x="-82.5" y="-140.5" width="49" height="49" rx="5" fill="#F2EFE4"/><rect x="-82.5" y="-82.5" width="49" height="49" rx="5" fill="#F8F6EF"/><rect x="-82.5" y="-24.5" width="49" height="49" rx="5" fill="#F8F6EF"/><rect x="-82.5" y="33.5" width="49" height="49" rx="5" fill="#F8F6EF"/><rect x="-82.5" y="91.5" width="49" height="49" rx="5" fill="#CFE5B5"/><circle cx="-67.8" cy="108.7" r="6" fill="#9CC77E"/><circle cx="-48.2" cy="121.9" r="7" fill="#9CC77E"/><rect x="-82.5" y="149.5" width="49" height="49" rx="5" fill="#F8F6EF"/><rect x="-82.5" y="207.5" width="49" height="49" rx="5" fill="#F8F6EF"/><rect x="-82.5" y="265.5" width="49" height="49" rx="5" fill="#F8F6EF"/><rect x="-82.5" y="323.5" width="49" height="49" rx="5" fill="#F8F6EF"/><rect x="-82.5" y="381.5" width="49" height="49" rx="5" fill="#F8F6EF"/><rect x="-82.5" y="439.5" width="49" height="49" rx="5" fill="#F8F6EF"/><rect x="-24.5" y="-488.5" width="49" height="49" rx="5" fill="#F8F6EF"/><rect x="-24.5" y="-430.5" width="49" height="49" rx="5" fill="#F8F6EF"/><rect x="-24.5" y="-372.5" width="49" height="49" rx="5" fill="#F8F6EF"/><rect x="-24.5" y="-314.5" width="49" height="49" rx="5" fill="#F8F6EF"/><rect x="-24.5" y="-256.5" width="49" height="49" rx="5" fill="#F8F6EF"/><rect x="-24.5" y="-198.5" width="49" height="49" rx="5" fill="#F8F6EF"/><rect x="-24.5" y="-140.5" width="49" height="49" rx="5" fill="#F8F6EF"/><rect x="-24.5" y="-82.5" width="49" height="49" rx="5" fill="#F8F6EF"/><rect x="-24.5" y="-24.5" width="49" height="49" rx="5" fill="#F8F6EF"/><rect x="-24.5" y="33.5" width="49" height="49" rx="5" fill="#F8F6EF"/><rect x="-24.5" y="91.5" width="49" height="49" rx="5" fill="#F8F6EF"/><rect x="-24.5" y="149.5" width="49" height="49" rx="5" fill="#F8F6EF"/><rect x="-24.5" y="207.5" width="49" height="49" rx="5" fill="#F2EFE4"/><rect x="-24.5" y="265.5" width="49" height="49" rx="5" fill="#F8F6EF"/><rect x="-24.5" y="323.5" width="49" height="49" rx="5" fill="#F8F6EF"/><rect x="-24.5" y="381.5" width="49" height="49" rx="5" fill="#F8F6EF"/><rect x="-24.5" y="439.5" width="49" height="49" rx="5" fill="#F2EFE4"/><rect x="33.5" y="-488.5" width="49" height="49" rx="5" fill="#F8F6EF"/><rect x="33.5" y="-430.5" width="49" height="49" rx="5" fill="#F8F6EF"/><rect x="33.5" y="-372.5" width="49" height="49" rx="5" fill="#F8F6EF"/><rect x="33.5" y="-314.5" width="49" height="49" rx="5" fill="#F8F6EF"/><rect x="33.5" y="-256.5" width="49" height="49" rx="5" fill="#F2EFE4"/><rect x="33.5" y="-198.5" width="49" height="49" rx="5" fill="#F2EFE4"/><rect x="33.5" y="-140.5" width="49" height="49" rx="5" fill="#F8F6EF"/><rect x="33.5" y="-82.5" width="49" height="49" rx="5" fill="#F8F6EF"/><rect x="33.5" y="-24.5" width="49" height="49" rx="5" fill="#F8F6EF"/><rect x="33.5" y="33.5" width="49" height="49" rx="5" fill="#F8F6EF"/><rect x="33.5" y="91.5" width="49" height="49" rx="5" fill="#F8F6EF"/><rect x="33.5" y="149.5" width="49" height="49" rx="5" fill="#F8F6EF"/><rect x="33.5" y="207.5" width="49" height="49" rx="5" fill="#F8F6EF"/><rect x="33.5" y="265.5" width="49" height="49" rx="5" fill="#F8F6EF"/><rect x="33.5" y="323.5" width="49" height="49" rx="5" fill="#F8F6EF"/><rect x="33.5" y="381.5" width="49" height="49" rx="5" fill="#F8F6EF"/><rect x="33.5" y="439.5" width="49" height="49" rx="5" fill="#F8F6EF"/><rect x="91.5" y="-488.5" width="49" height="49" rx="5" fill="#F8F6EF"/><rect x="91.5" y="-430.5" width="49" height="49" rx="5" fill="#F8F6EF"/><rect x="91.5" y="-372.5" width="49" height="49" rx="5" fill="#F8F6EF"/><rect x="91.5" y="-314.5" width="49" height="49" rx="5" fill="#F8F6EF"/><rect x="91.5" y="-256.5" width="49" height="49" rx="5" fill="#F8F6EF"/><rect x="91.5" y="-198.5" width="49" height="49" rx="5" fill="#F8F6EF"/><rect x="91.5" y="-140.5" width="49" height="49" rx="5" fill="#F8F6EF"/><rect x="91.5" y="-82.5" width="49" height="49" rx="5" fill="#F2EFE4"/><rect x="91.5" y="-24.5" width="49" height="49" rx="5" fill="#F8F6EF"/><rect x="91.5" y="33.5" width="49" height="49" rx="5" fill="#F8F6EF"/><rect x="91.5" y="91.5" width="49" height="49" rx="5" fill="#F8F6EF"/><rect x="91.5" y="149.5" width="49" height="49" rx="5" fill="#F8F6EF"/><rect x="91.5" y="207.5" width="49" height="49" rx="5" fill="#F8F6EF"/><rect x="91.5" y="265.5" width="49" height="49" rx="5" fill="#F8F6EF"/><rect x="91.5" y="323.5" width="49" height="49" rx="5" fill="#F2EFE4"/><rect x="91.5" y="381.5" width="49" height="49" rx="5" fill="#F8F6EF"/><rect x="91.5" y="439.5" width="49" height="49" rx="5" fill="#F8F6EF"/><rect x="149.5" y="-488.5" width="49" height="49" rx="5" fill="#F8F6EF"/><rect x="149.5" y="-430.5" width="49" height="49" rx="5" fill="#F2EFE4"/><rect x="149.5" y="-372.5" width="49" height="49" rx="5" fill="#F8F6EF"/><rect x="149.5" y="-314.5" width="49" height="49" rx="5" fill="#F8F6EF"/><rect x="149.5" y="-256.5" width="49" height="49" rx="5" fill="#F8F6EF"/><rect x="149.5" y="-198.5" width="49" height="49" rx="5" fill="#F8F6EF"/><rect x="149.5" y="-140.5" width="49" height="49" rx="5" fill="#F8F6EF"/><rect x="149.5" y="-82.5" width="49" height="49" rx="5" fill="#F8F6EF"/><rect x="149.5" y="-24.5" width="49" height="49" rx="5" fill="#F8F6EF"/><rect x="149.5" y="33.5" width="49" height="49" rx="5" fill="#F8F6EF"/><rect x="149.5" y="91.5" width="49" height="49" rx="5" fill="#F8F6EF"/><rect x="149.5" y="149.5" width="49" height="49" rx="5" fill="#F8F6EF"/><rect x="149.5" y="207.5" width="49" height="49" rx="5" fill="#F2EFE4"/><rect x="149.5" y="265.5" width="49" height="49" rx="5" fill="#F8F6EF"/><rect x="149.5" y="323.5" width="49" height="49" rx="5" fill="#F8F6EF"/><rect x="149.5" y="381.5" width="49" height="49" rx="5" fill="#F8F6EF"/><rect x="149.5" y="439.5" width="49" height="49" rx="5" fill="#F8F6EF"/><rect x="207.5" y="-488.5" width="49" height="49" rx="5" fill="#F8F6EF"/><rect x="207.5" y="-430.5" width="49" height="49" rx="5" fill="#F8F6EF"/><rect x="207.5" y="-372.5" width="49" height="49" rx="5" fill="#F8F6EF"/><rect x="207.5" y="-314.5" width="49" height="49" rx="5" fill="#F8F6EF"/><rect x="207.5" y="-256.5" width="49" height="49" rx="5" fill="#F8F6EF"/><rect x="207.5" y="-198.5" width="49" height="49" rx="5" fill="#F8F6EF"/><rect x="207.5" y="-140.5" width="49" height="49" rx="5" fill="#F8F6EF"/><rect x="207.5" y="-82.5" width="49" height="49" rx="5" fill="#F8F6EF"/><rect x="207.5" y="-24.5" width="49" height="49" rx="5" fill="#F8F6EF"/><rect x="207.5" y="33.5" width="49" height="49" rx="5" fill="#F2EFE4"/><rect x="207.5" y="91.5" width="49" height="49" rx="5" fill="#F8F6EF"/><rect x="207.5" y="149.5" width="49" height="49" rx="5" fill="#F8F6EF"/><rect x="207.5" y="207.5" width="49" height="49" rx="5" fill="#F8F6EF"/><rect x="207.5" y="265.5" width="49" height="49" rx="5" fill="#F8F6EF"/><rect x="207.5" y="323.5" width="49" height="49" rx="5" fill="#F8F6EF"/><rect x="207.5" y="381.5" width="49" height="49" rx="5" fill="#F8F6EF"/><rect x="207.5" y="439.5" width="49" height="49" rx="5" fill="#F8F6EF"/><rect x="265.5" y="-488.5" width="49" height="49" rx="5" fill="#F8F6EF"/><rect x="265.5" y="-430.5" width="49" height="49" rx="5" fill="#F8F6EF"/><rect x="265.5" y="-372.5" width="49" height="49" rx="5" fill="#F8F6EF"/><rect x="265.5" y="-314.5" width="49" height="49" rx="5" fill="#F2EFE4"/><rect x="265.5" y="-256.5" width="49" height="49" rx="5" fill="#F2EFE4"/><rect x="265.5" y="-198.5" width="49" height="49" rx="5" fill="#F8F6EF"/><rect x="265.5" y="-140.5" width="49" height="49" rx="5" fill="#F8F6EF"/><rect x="265.5" y="-82.5" width="49" height="49" rx="5" fill="#F8F6EF"/><rect x="265.5" y="-24.5" width="49" height="49" rx="5" fill="#F8F6EF"/><rect x="265.5" y="33.5" width="49" height="49" rx="5" fill="#F8F6EF"/><rect x="265.5" y="91.5" width="49" height="49" rx="5" fill="#F8F6EF"/><rect x="265.5" y="149.5" width="49" height="49" rx="5" fill="#F8F6EF"/><rect x="265.5" y="207.5" width="49" height="49" rx="5" fill="#F8F6EF"/><rect x="265.5" y="265.5" width="49" height="49" rx="5" fill="#F8F6EF"/><rect x="265.5" y="323.5" width="49" height="49" rx="5" fill="#F8F6EF"/><rect x="265.5" y="381.5" width="49" height="49" rx="5" fill="#F2EFE4"/><rect x="265.5" y="439.5" width="49" height="49" rx="5" fill="#F2EFE4"/><rect x="323.5" y="-488.5" width="49" height="49" rx="5" fill="#F8F6EF"/><rect x="323.5" y="-430.5" width="49" height="49" rx="5" fill="#F8F6EF"/><rect x="323.5" y="-372.5" width="49" height="49" rx="5" fill="#F8F6EF"/><rect x="323.5" y="-314.5" width="49" height="49" rx="5" fill="#F8F6EF"/><rect x="323.5" y="-256.5" width="49" height="49" rx="5" fill="#F2EFE4"/><rect x="323.5" y="-198.5" width="49" height="49" rx="5" fill="#F8F6EF"/><rect x="323.5" y="-140.5" width="49" height="49" rx="5" fill="#F8F6EF"/><rect x="323.5" y="-82.5" width="49" height="49" rx="5" fill="#F8F6EF"/><rect x="323.5" y="-24.5" width="49" height="49" rx="5" fill="#F8F6EF"/><rect x="323.5" y="33.5" width="49" height="49" rx="5" fill="#F8F6EF"/><rect x="323.5" y="91.5" width="49" height="49" rx="5" fill="#F8F6EF"/><rect x="323.5" y="149.5" width="49" height="49" rx="5" fill="#F8F6EF"/><rect x="323.5" y="207.5" width="49" height="49" rx="5" fill="#F8F6EF"/><rect x="323.5" y="265.5" width="49" height="49" rx="5" fill="#F8F6EF"/><rect x="323.5" y="323.5" width="49" height="49" rx="5" fill="#F8F6EF"/><rect x="323.5" y="381.5" width="49" height="49" rx="5" fill="#F8F6EF"/><rect x="323.5" y="439.5" width="49" height="49" rx="5" fill="#F8F6EF"/><rect x="381.5" y="-488.5" width="49" height="49" rx="5" fill="#F8F6EF"/><rect x="381.5" y="-430.5" width="49" height="49" rx="5" fill="#F8F6EF"/><rect x="381.5" y="-372.5" width="49" height="49" rx="5" fill="#F8F6EF"/><rect x="381.5" y="-314.5" width="49" height="49" rx="5" fill="#F8F6EF"/><rect x="381.5" y="-256.5" width="49" height="49" rx="5" fill="#F8F6EF"/><rect x="381.5" y="-198.5" width="49" height="49" rx="5" fill="#F8F6EF"/><rect x="381.5" y="-140.5" width="49" height="49" rx="5" fill="#F8F6EF"/><rect x="381.5" y="-82.5" width="49" height="49" rx="5" fill="#F8F6EF"/><rect x="381.5" y="-24.5" width="49" height="49" rx="5" fill="#F8F6EF"/><rect x="381.5" y="33.5" width="49" height="49" rx="5" fill="#F8F6EF"/><rect x="381.5" y="91.5" width="49" height="49" rx="5" fill="#F8F6EF"/><rect x="381.5" y="149.5" width="49" height="49" rx="5" fill="#F8F6EF"/><rect x="381.5" y="207.5" width="49" height="49" rx="5" fill="#F8F6EF"/><rect x="381.5" y="265.5" width="49" height="49" rx="5" fill="#F2EFE4"/><rect x="381.5" y="323.5" width="49" height="49" rx="5" fill="#F8F6EF"/><rect x="381.5" y="381.5" width="49" height="49" rx="5" fill="#F8F6EF"/><rect x="381.5" y="439.5" width="49" height="49" rx="5" fill="#F8F6EF"/><rect x="439.5" y="-488.5" width="49" height="49" rx="5" fill="#F8F6EF"/><rect x="439.5" y="-430.5" width="49" height="49" rx="5" fill="#F8F6EF"/><rect x="439.5" y="-372.5" width="49" height="49" rx="5" fill="#F8F6EF"/><rect x="439.5" y="-314.5" width="49" height="49" rx="5" fill="#F8F6EF"/><rect x="439.5" y="-256.5" width="49" height="49" rx="5" fill="#F8F6EF"/><rect x="439.5" y="-198.5" width="49" height="49" rx="5" fill="#F8F6EF"/><rect x="439.5" y="-140.5" width="49" height="49" rx="5" fill="#F8F6EF"/><rect x="439.5" y="-82.5" width="49" height="49" rx="5" fill="#F8F6EF"/><rect x="439.5" y="-24.5" width="49" height="49" rx="5" fill="#F8F6EF"/><rect x="439.5" y="33.5" width="49" height="49" rx="5" fill="#F2EFE4"/><rect x="439.5" y="91.5" width="49" height="49" rx="5" fill="#F8F6EF"/><rect x="439.5" y="149.5" width="49" height="49" rx="5" fill="#F8F6EF"/><rect x="439.5" y="207.5" width="49" height="49" rx="5" fill="#F8F6EF"/><rect x="439.5" y="265.5" width="49" height="49" rx="5" fill="#F8F6EF"/><rect x="439.5" y="323.5" width="49" height="49" rx="5" fill="#F8F6EF"/><rect x="439.5" y="381.5" width="49" height="49" rx="5" fill="#F2EFE4"/><rect x="439.5" y="439.5" width="49" height="49" rx="5" fill="#F8F6EF"/><rect x="-381.8" y="20.9" width="763.7" height="16.2" fill="#FFF3C9"/><path d="M-381.8 -150.8C-331.7 -144 -147.7 -112.1 -81.2 -110.2C-14.7 -108.3 -17.4 -142.1 17.4 -139.2C52.2 -136.3 66.9 -95.7 127.6 -92.8C188.3 -89.9 339.5 -117 381.8 -121.8" fill="none" stroke="#BFDCF0" stroke-width="10" stroke-linecap="round"/></g><path d="M236.2 620.4L292.4 606.3 278.4 550 334.7 536 320.7 479.7 376.9 465.7 362.9 409.4" fill="none" stroke="#fff" stroke-width="10" stroke-linecap="round" stroke-linejoin="round" opacity="0.81"/><path d="M236.2 620.4L292.4 606.3 278.4 550 334.7 536 320.7 479.7 376.9 465.7 362.9 409.4" fill="none" stroke="#7FA6E0" stroke-width="6" stroke-linecap="round" stroke-linejoin="round" opacity="0.9"/><path d="M362.9 409.4L348.9 353.2 405.2 339.1 391.1 282.8 377.1 226.6 433.4 212.5" fill="none" stroke="#fff" stroke-width="11" stroke-linecap="round" stroke-linejoin="round" opacity="0.9"/><path d="M362.9 409.4L348.9 353.2 405.2 339.1 391.1 282.8 377.1 226.6 433.4 212.5" fill="none" stroke="#1A4FA0" stroke-width="7" stroke-linecap="round" stroke-linejoin="round" opacity="1"/><circle cx="236.2" cy="620.4" r="8" fill="#fff" stroke="#1A4FA0" stroke-width="4"/><circle cx="433.4" cy="212.5" r="44" fill="#FFC21A" opacity=".18"/><circle cx="433.4" cy="212.5" r="28" fill="#FFC21A" opacity=".3"/><g transform="translate(433.4 212.5) rotate(76)"><g transform="scale(1.15)"><rect x="-11" y="-19" width="22" height="38" rx="7" fill="#000" opacity=".22" transform="translate(1.5 2)"/><rect x="-11" y="-19" width="22" height="38" rx="7" fill="#FFC107" stroke="#121212" stroke-width="1.6"/><path d="M-8 -9Q0 -13 8 -9L7 -3H-7Z" fill="#22304F"/><path d="M-7 8H7L8 12Q0 15 -8 12Z" fill="#22304F"/><rect x="-4.5" y="-1.6" width="9" height="4.4" rx="1.2" fill="#121212"/><rect x="-3" y="-.6" width="6" height="2.4" rx=".8" fill="#FFC107"/></g></g><rect x="244" y="70" width="252" height="48" rx="16" fill="#fff" opacity=".96"/><circle cx="270" cy="94" r="13" fill="#0A2552"/><path d="M270 101c0 0-7-6-7-10a7 7 0 1 1 14 0c0 4-7 10-7 10z" fill="#FFC21A"/><rect x="292" y="84" width="92" height="8" rx="4" fill="#C3CDDC"/><rect x="292" y="98" width="58" height="7" rx="3.5" fill="#E1E6EE"/><circle cx="472" cy="94" r="6" fill="#22B45E"/><rect x="230" y="460" width="280" height="170" rx="26" fill="#fff"/><rect x="348" y="470" width="44" height="5" rx="2.5" fill="#D5DBE5"/><rect x="246" y="488" width="77.3" height="62" rx="14" fill="#EAF0FA"/><circle cx="264" cy="506" r="8" fill="#1A4FA0"/><rect x="258" y="524" width="47.9" height="9" rx="4.5" fill="#9AA7BB"/><rect x="258" y="538" width="30.9" height="6" rx="3" fill="#D5DBE5"/><rect x="331.3" y="488" width="77.3" height="62" rx="14" fill="#F4F6FA"/><circle cx="349.3" cy="506" r="8" fill="#FFC21A"/><rect x="343.3" y="524" width="47.9" height="9" rx="4.5" fill="#9AA7BB"/><rect x="343.3" y="538" width="30.9" height="6" rx="3" fill="#D5DBE5"/><rect x="416.7" y="488" width="77.3" height="62" rx="14" fill="#F4F6FA"/><circle cx="434.7" cy="506" r="8" fill="#22B45E"/><rect x="428.7" y="524" width="47.9" height="9" rx="4.5" fill="#9AA7BB"/><rect x="428.7" y="538" width="30.9" height="6" rx="3" fill="#D5DBE5"/></g><rect x="336" y="36" width="68" height="18" rx="9" fill="#0B0F17"/><g transform="translate(18 472.1) scale(1.32)"><ellipse cx="112" cy="104" rx="106" ry="8" fill="#000" opacity=".25"/><path d="M14 80c-2-14 4-24 20-27l34-5 21-22c4-4 9-6 15-6h40c9 0 15 3 20 9l17 20 18 4c11 3 17 10 17 21v8c0 5-3 8-8 8H22c-5 0-8-3-8-8z" fill="url(#carro)"/><path d="M14 80c-2-14 4-24 20-27l34-5" fill="none" stroke="#E0A100" stroke-width="2"/><path d="M74 48l19-20c3-3 6-4 10-4h20v24z" fill="url(#vidrio)"/><path d="M128 24h16c7 0 11 2 15 7l13 17h-44z" fill="url(#vidrio)"/><path d="M80 44l12-13M133 43l9-12" stroke="#fff" stroke-width="3" stroke-linecap="round" opacity=".35"/><path d="M125 24v56M70 52v28" stroke="#C99100" stroke-width="1.6" opacity=".7"/><rect x="24" y="62" width="176" height="8" fill="url(#cuadrosc)"/><rect x="100" y="8" width="38" height="13" rx="3.5" fill="#121212"/><rect x="104" y="11.5" width="30" height="6" rx="2" fill="#FFC107"/><rect x="108" y="52" width="10" height="3" rx="1.5" fill="#121212" opacity=".55"/><rect x="150" y="52" width="10" height="3" rx="1.5" fill="#121212" opacity=".55"/><path d="M200 66l9 2v7l-9-1z" fill="#FFF3B0"/><rect x="15" y="64" width="6" height="9" rx="2" fill="#E53935"/><circle cx="58" cy="90" r="16" fill="#121212"/><circle cx="58" cy="90" r="7.5" fill="#B9BEC6"/><circle cx="58" cy="90" r="2.5" fill="#121212"/><circle cx="170" cy="90" r="16" fill="#121212"/><circle cx="170" cy="90" r="7.5" fill="#B9BEC6"/><circle cx="170" cy="90" r="2.5" fill="#121212"/></g><g transform="translate(166 448)"><g transform="scale(0.82)"><ellipse cx="0" cy="2" rx="12" ry="3.5" fill="#000" opacity=".2"/><path d="M0 0C0 0-28-24-28-46C-28-62-15-74 0-74S28-62 28-46C28-24 0 0 0 0Z" fill="#FFC21A" stroke="#121212" stroke-width="3"/><circle cx="0" cy="-46" r="12" fill="#121212"/><path d="M-5.5 -46l4 4 7.5-8" fill="none" stroke="#FFC107" stroke-width="3.2" stroke-linecap="round" stroke-linejoin="round"/></g></g><path d="M166 342A40 40 0 0 1 199.2 359.6" fill="none" stroke="#FFC21A" stroke-width="5" stroke-linecap="round" opacity="1"/><path d="M166 320A62 62 0 0 1 217.4 347.3" fill="none" stroke="#FFC21A" stroke-width="5" stroke-linecap="round" opacity="0.78"/><path d="M166 298A84 84 0 0 1 235.6 335" fill="none" stroke="#FFC21A" stroke-width="5" stroke-linecap="round" opacity="0.56"/></svg>
